<svg xmlns="http://www.w3.org/2000/svg" viewBox="0 0 214.281 35.04"><defs><style>.a{fill:#373535;}.b{fill:#90c74b;}</style></defs><g transform="translate(-80.049 139.04)"><path class="a" d="M19.049,167.5l22.061-.862v3.14l-8.664.238v17.059l-4.772-.178v-16.75l-8.626.238Z" transform="translate(61 -298.561)"/><path class="a" d="M58.259,178.88l8.321.057q-2.043-4.7-4.085-9.266l-.114,0Q60.32,174.345,58.259,178.88Zm1.679-12.811,5.076-.2q5.248,10.634,10.5,22.069l-5.114-.191q-1.279-2.971-2.558-5.89l-10.878-.185q-1.278,2.766-2.557,5.48l-4.923-.183Q54.709,176.918,59.939,166.069Z" transform="translate(49.118 -298.26)"/><path class="a" d="M101.214,175l7.825-.034c3.015-.009,4.657-1.326,4.656-3.851,0-3.063-2.252-3.6-4.732-3.529l-7.749.218Zm-4.771-10.3,13.016-.508c5.954-.249,9.008,2.09,9.007,6.232a6.019,6.019,0,0,1-4.5,6.137v.067c1.641.2,4.046,1.292,4.046,5.148,0,2.827.457,5.427,1.489,6.46l-5.114-.191a6.13,6.13,0,0,1-.725-3.554c0-4.407-1.031-6.364-5.42-6.382l-7.023-.041v9.487l-4.771-.178Z" transform="translate(30.782 -297.596)"/><path class="a" d="M153.68,179.891c0,4.5-1.145,8.92-8.969,8.591-5.764-.244-8.13-3.734-8.13-8.189v-1.306l4.771.05v1.29c0,2.823.84,4.485,3.741,4.57,3.091.091,3.817-1.639,3.817-4.817V162.556l4.77-.187Z" transform="translate(15.111 -296.893)"/><path class="a" d="M174.151,161.506l19.619-.766v4.2l-14.848.409v6.981l13.741-.1v3.958l-13.741-.046v7.8l15.115.388v4.206l-19.886-.741Z" transform="translate(0.442 -296.257)"/><path class="a" d="M209.342,160.07l22.061-.862v4.479l-8.664.238V188.5l-4.771-.177V164.057l-8.627.237Z" transform="translate(-13.298 -295.659)"/><path class="a" d="M248.552,176.778l8.321.057q-2.042-6.6-4.084-13.072l-.114,0Q250.613,170.34,248.552,176.778Zm1.68-18.141,5.076-.2q5.248,15.058,10.5,30.919l-5.115-.191q-1.278-4.143-2.557-8.233l-10.878-.185q-1.279,3.937-2.557,7.823l-4.924-.183Q245,173.912,250.232,158.637Z" transform="translate(-25.179 -295.358)"/><path class="b" d="M283.48,180.95q6.336-7.77,12.673-16.024l-11.947.233V157.1l23.015-.9v7.437q-6.393,8.764-12.786,17.018l13.4.238v8.518l-24.353-.908Z" transform="translate(-42.244 -294.486)"/><path class="b" d="M341.013,177.232q-1.222-5.334-2.443-10.612h-.076q-1.317,5.31-2.634,10.56Zm-6.6-21.952,8.206-.321q4.962,17.141,9.924,35.04l-8.7-.324q-.572-2.5-1.145-5l-8.664-.228q-.611,2.413-1.221,4.813l-8.436-.314Q329.391,172.5,334.409,155.281Z" transform="translate(-58.21 -294)"/></g></svg>